<svg width="185" height="191" viewBox="0 0 185 191" fill="none" xmlns="http://www.w3.org/2000/svg">
<path d="M183.5 21C183.5 22.2913 182.929 23.5929 181.759 24.8985C180.586 26.207 178.832 27.4932 176.533 28.7341C171.935 31.2156 165.248 33.466 156.943 35.3618C140.34 39.1515 117.379 41.5 92 41.5C66.6209 41.5 43.66 39.1515 27.0574 35.3618C18.7522 33.466 12.0655 31.2156 7.46728 28.7341C5.16785 27.4932 3.41448 26.207 2.24141 24.8985C1.07103 23.5929 0.5 22.2913 0.5 21C0.5 19.7087 1.07103 18.4071 2.24141 17.1015C3.41448 15.793 5.16785 14.5068 7.46728 13.2659C12.0655 10.7844 18.7522 8.53399 27.0574 6.63822C43.66 2.84851 66.6209 0.5 92 0.5C117.379 0.5 140.34 2.84851 156.943 6.63822C165.248 8.53399 171.935 10.7844 176.533 13.2659C178.832 14.5068 180.586 15.793 181.759 17.1015C182.929 18.4071 183.5 19.7087 183.5 21Z" fill="#D9D9D9" stroke="black"/>
<path d="M147.5 175.5C147.5 177.377 146.108 179.285 143.288 181.114C140.49 182.929 136.408 184.582 131.319 185.978C121.149 188.768 107.071 190.5 91.5 190.5C75.9295 190.5 61.851 188.768 51.6807 185.978C46.592 184.582 42.5101 182.929 39.7121 181.114C36.8924 179.285 35.5 177.377 35.5 175.5C35.5 173.623 36.8924 171.715 39.7121 169.886C42.5101 168.071 46.592 166.418 51.6807 165.022C61.851 162.232 75.9295 160.5 91.5 160.5C107.071 160.5 121.149 162.232 131.319 165.022C136.408 166.418 140.49 168.071 143.288 169.886C146.108 171.715 147.5 173.623 147.5 175.5Z" fill="#D9D9D9" stroke="black"/>
<line x1="0.48772" y1="20.8899" x2="35.4877" y2="175.89" stroke="black"/>
<line x1="184.487" y1="21.1131" x2="148.487" y2="176.113" stroke="black"/>
</svg>
