<svg width="203" height="42" viewBox="0 0 203 42" fill="none" xmlns="http://www.w3.org/2000/svg">
<path d="M202.5 21C202.5 22.2742 201.878 23.5705 200.582 24.8806C199.285 26.1923 197.346 27.4817 194.804 28.725C189.722 31.2107 182.337 33.463 173.17 35.3596C154.844 39.1511 129.505 41.5 101.5 41.5C73.495 41.5 48.1556 39.1511 29.83 35.3596C20.6631 33.463 13.2776 31.2107 8.19608 28.725C5.65427 27.4817 3.71494 26.1923 2.41761 24.8806C1.1218 23.5705 0.5 22.2742 0.5 21C0.5 19.7258 1.1218 18.4295 2.41761 17.1194C3.71494 15.8077 5.65427 14.5183 8.19608 13.275C13.2776 10.7893 20.6631 8.53699 29.83 6.64039C48.1556 2.84889 73.495 0.5 101.5 0.5C129.505 0.5 154.844 2.84889 173.17 6.64039C182.337 8.53699 189.722 10.7893 194.804 13.275C197.346 14.5183 199.285 15.8077 200.582 17.1194C201.878 18.4295 202.5 19.7258 202.5 21Z" fill="#D9D9D9" stroke="black"/>
</svg>
