<svg width="608" height="137" viewBox="0 0 608 137" fill="none" xmlns="http://www.w3.org/2000/svg">
<rect width="608" height="137" fill="white"/>
<path d="M5 97C12.1417 97 20.5245 94.0155 27 90.7778C40.9062 83.8247 54.5896 75.1367 69.9444 71.5C77.0693 69.8125 84.4805 66.2476 91.5556 65.2222C102.065 63.6991 111.787 61.6793 122.222 59C140.075 54.4162 159.238 53.9586 177.222 50.5C185.18 48.9696 194.071 50 202.111 50C218.074 50 234.037 50 250 50C258.833 50 267.667 50 276.5 50C285.458 50 294.275 50.3664 303.222 50.7778C320.926 51.5918 338.529 54 356.222 54C368.383 54 379.933 55.8803 391.944 58C404.291 60.1789 416.365 63.2167 428.889 64.2222C435.624 64.763 442.503 65.1299 449.111 66.6111C476.687 72.792 504.613 76.68 532 83" stroke="#25A9D2" stroke-width="10" stroke-linecap="round"/>
<path d="M5 132C12.997 123.559 14.4739 110.323 17.1111 99.4444C20.7103 84.5979 28.6236 69.7025 37.1111 57.1111C42.6245 48.932 46.4388 41.489 53.9444 35.0556C61.7976 28.3243 71.2793 26.0845 81.5 25.1111C86.3547 24.6488 91.0016 24.8552 95.4444 27C102.061 30.194 111.184 36.0464 115.889 41.6667C127.082 55.0365 125 77.4075 125 93.7778C125 98.9777 126.679 111 119.056 111C113.908 111 106.764 109.797 101.778 111.222C95.3671 113.054 82.1514 112.377 80.2222 103.889C78.7029 97.204 80.8107 91.0254 83.4444 85.0556C86.7644 77.5304 89.9833 69.2501 94.6111 62.4444C97.7068 57.8919 101.28 50.6574 105.778 47.4444C111.53 43.3355 118.284 38.4098 123 33.2222C131.67 23.6847 146.169 21.3049 158.056 18.3333C166.007 16.3455 173.949 12.9703 182.111 12.1111C191.975 11.0728 201.585 9.61943 211.389 8.11111C230.156 5.22391 244.401 2.78479 254.889 20.3889C262.378 32.9595 265.134 51.3414 259.778 65.5556C257.571 71.4122 249.829 82.0525 243.5 84C239.913 85.1037 236.887 87.3794 233.556 89C229.152 91.1423 221.537 95.817 216.778 96C213.014 96.1448 209.235 96.4207 205.889 94.5556C200.822 91.7313 195.608 90.7018 190.778 88C184.792 84.6521 184.064 78.9837 185.556 72.1667C186.287 68.8228 186.61 64.5566 189.111 62.0556C191.527 59.6392 193.49 57.685 195.167 54.6667C200.123 45.7454 207.822 34.9666 216 28.7778C221.956 24.2705 226.764 17.4217 233.444 14C237.443 11.9519 241.831 10.3276 246.278 9.66667C259.427 7.71204 273.142 7.36422 286.389 6.11111C296.107 5.19183 305.556 5 315.278 5C330.216 5 342.982 7.84116 356.5 14.3889C368.737 20.3164 375.664 28.5527 385.167 38.0556C391.154 44.0428 394 45.2202 394 54.3333C394 64.7724 393.973 76.8744 388 86C380.342 97.7001 371.147 106 357 106C347.585 106 338.783 101.632 334.222 93C329.997 85.0015 332.263 74.9287 336.111 67.4444C342.054 55.8861 348.422 42.8936 358 34C366.799 25.8295 381.42 20.7812 392.722 17.5C404.838 13.9827 425.804 14.1155 437 20.2222C441.989 22.9433 446.542 28.5424 450.611 32.6111C455.103 37.1028 459.36 41.5824 463.444 46.4444C472.379 57.0814 479.529 64.9359 481.444 79.1667C483.521 94.5956 482.2 108.938 465.778 112.222C449.815 115.415 442.644 100.2 439 87.4444C434.885 73.0412 444.2 68.1823 453.778 59.2222C456.541 56.637 459.314 54.2672 462.889 52.7778C472.577 48.7409 483.659 47.152 493.889 45.5556C513.543 42.4886 533.352 40.7545 553.111 38.5556C569.257 36.7588 586.83 33 603 33" stroke="#A62424" stroke-width="10" stroke-linecap="round"/>
</svg>
